# Blender 4.3.2
# www.blender.org
o Curve
v 0.479835 0.612855 0.846605
v 0.097734 0.899945 0.533896
v 0.084042 0.906637 0.522525
v 0.068934 0.911489 0.512857
v 0.052694 0.915264 0.505337
v 0.035603 0.917960 0.499966
v 0.017946 0.919577 0.496744
v 0.000005 0.920116 0.495669
v -0.017936 0.919577 0.496744
v -0.035593 0.917960 0.499966
v -0.052684 0.915264 0.505337
v -0.068925 0.911489 0.512857
v -0.084032 0.906637 0.522525
v -0.097724 0.899945 0.533896
v -0.105242 0.895236 0.540867
v -0.479836 0.612855 0.846605
v -0.495259 0.595350 0.858430
v -0.505463 0.576783 0.870972
v -0.510728 0.557647 0.883900
v -0.511336 0.538434 0.896879
v -0.507565 0.518962 0.908425
v -0.499695 0.499667 0.918109
v -0.488008 0.481883 0.927036
v -0.472782 0.466141 0.934937
v -0.454299 0.452973 0.941546
v -0.432837 0.442909 0.946598
v -0.408678 0.436481 0.949824
v -0.382101 0.434220 0.950959
v -0.166215 0.434220 0.950959
v -0.166215 -0.879461 0.564218
v 0.166203 -0.879462 0.564218
v 0.166203 0.434221 0.950959
v 0.382122 0.434221 0.950959
v 0.408699 0.436481 0.949824
v 0.432858 0.442909 0.946598
v 0.454320 0.452973 0.941547
v 0.472803 0.466141 0.934937
v 0.488028 0.481883 0.927036
v 0.499715 0.499667 0.918110
v 0.507583 0.518962 0.908426
v 0.511354 0.538434 0.896880
v 0.510745 0.557648 0.883900
v 0.505478 0.576784 0.870973
v 0.495271 0.595351 0.858430
v 0.479846 0.612855 0.846605
v 0.479846 0.612855 0.846605
v 0.479845 0.612855 0.846605
v 0.479844 0.612855 0.846605
v 0.479843 0.612855 0.846605
v 0.479842 0.612855 0.846605
v 0.479840 0.612855 0.846605
v 0.479839 0.612855 0.846605
v 0.479838 0.612855 0.846605
v 0.479837 0.612855 0.846605
v 0.479836 0.612855 0.846605
v 0.479835 0.612855 0.846605
v -0.166215 -0.826920 0.641426
v -0.166215 -0.765202 0.711541
v -0.166215 -0.698504 0.776677
v -0.166215 -0.627229 0.836895
v -0.166215 -0.549826 0.889183
v -0.166215 -0.468039 0.933984
v -0.166215 -0.383258 0.972815
v -0.166215 -0.295023 1.003474
v -0.166215 -0.204132 1.024461
v -0.166215 -0.112075 1.039176
v -0.166215 -0.018877 1.045450
v -0.166215 0.074321 1.041718
v -0.166215 0.167059 1.032039
v -0.166215 0.258576 1.013331
v -0.166215 0.347514 0.985235
v 0.166203 0.347514 0.985235
v 0.166203 0.258576 1.013331
v 0.166203 0.167059 1.032039
v 0.166203 0.074321 1.041718
v 0.166203 -0.018877 1.045450
v 0.166203 -0.112076 1.039176
v 0.166203 -0.204132 1.024461
v 0.166203 -0.295023 1.003474
v 0.166203 -0.383258 0.972815
v 0.166203 -0.468040 0.933984
v 0.166203 -0.549826 0.889183
v 0.166203 -0.627229 0.836895
v 0.166203 -0.698505 0.776677
v 0.166203 -0.765202 0.711541
v 0.166203 -0.826920 0.641426
v -0.152066 0.865906 0.584284
v -0.198891 0.836576 0.627701
v -0.245715 0.803400 0.668146
v -0.292539 0.768781 0.707475
v -0.339363 0.733356 0.745999
v -0.386187 0.694027 0.780618
v -0.433012 0.654697 0.815238
v 0.432082 0.655487 0.814543
v 0.384318 0.695606 0.779229
v 0.336554 0.735725 0.743915
v 0.288790 0.771560 0.704318
v 0.241026 0.806874 0.664199
v 0.193262 0.840108 0.622473
v 0.145498 0.870027 0.578184
vn -0.0000 0.6249 0.7807
vn -0.0000 0.5519 0.8339
vn -0.0000 -0.8267 0.5626
vn -0.0000 -0.0000 -0.0000
vn -0.0000 -0.7922 0.6103
vn -0.0000 -0.7259 0.6878
vn -0.0000 -0.6731 0.7396
vn -0.0000 -0.6048 0.7964
vn -0.0000 -0.5215 0.8532
vn -0.0000 -0.4492 0.8935
vn -0.0000 -0.3734 0.9277
vn -0.0000 -0.2777 0.9607
vn -0.0000 -0.1917 0.9815
vn -0.0000 -0.1128 0.9936
vn -0.0000 -0.0136 0.9999
vn -0.0000 0.0720 0.9974
vn -0.0000 0.1525 0.9883
vn -0.0000 0.2517 0.9678
vn -0.0000 0.3350 0.9422
vt 0.000000 0.000000
s 1
f 20/1/1 21/1/1 22/1/1 23/1/1 24/1/1 25/1/1 26/1/1 27/1/1 28/1/1 29/1/2 32/1/2 33/1/1 34/1/1 35/1/1 36/1/1 37/1/1 38/1/1 39/1/1 40/1/1 41/1/1 42/1/1 43/1/1 44/1/1 1/1/1 56/1/1 55/1/1 54/1/1 53/1/1 52/1/1 51/1/1 50/1/1 49/1/1 48/1/1 47/1/1 45/1/4 46/1/1 94/1/1 95/1/1 96/1/1 97/1/1 98/1/1 99/1/1 100/1/1 2/1/1 3/1/1 4/1/1 5/1/1 6/1/1 7/1/1 8/1/1 9/1/1 10/1/1 11/1/1 12/1/1 13/1/1 14/1/1 15/1/1 87/1/1 88/1/1 89/1/1 90/1/1 91/1/1 92/1/1 93/1/1 16/1/1 17/1/1 18/1/1 19/1/1
f 57/1/5 30/1/3 31/1/3 86/1/5
f 29/1/2 71/1/19 72/1/19 32/1/2
f 71/1/19 70/1/18 73/1/18 72/1/19
f 70/1/18 69/1/17 74/1/17 73/1/18
f 69/1/17 68/1/16 75/1/16 74/1/17
f 68/1/16 67/1/15 76/1/15 75/1/16
f 67/1/15 66/1/14 77/1/14 76/1/15
f 66/1/14 65/1/13 78/1/13 77/1/14
f 65/1/13 64/1/12 79/1/12 78/1/13
f 64/1/12 63/1/11 80/1/11 79/1/12
f 63/1/11 62/1/10 81/1/10 80/1/11
f 62/1/10 61/1/9 82/1/9 81/1/10
f 61/1/9 60/1/8 83/1/8 82/1/9
f 60/1/8 59/1/7 84/1/7 83/1/8
f 59/1/7 58/1/6 85/1/6 84/1/7
f 58/1/6 57/1/5 86/1/5 85/1/6
