# Blender 4.3.2
# www.blender.org
o Cone
v 2.000000 -0.000001 -1.000000
v 2.000000 0.195089 -0.980785
v 2.000000 0.382682 -0.923880
v 2.000001 0.555569 -0.831470
v 2.000001 0.707105 -0.707107
v 2.000001 0.831468 -0.555570
v 2.000001 0.923878 -0.382683
v 2.000001 0.980784 -0.195090
v 2.000001 0.999999 0.000000
v 2.000001 0.980784 0.195090
v 2.000001 0.923878 0.382683
v 2.000001 0.831468 0.555570
v 2.000001 0.707105 0.707107
v 2.000001 0.555569 0.831470
v 2.000000 0.382682 0.923880
v 2.000000 0.195089 0.980785
v 2.000000 -0.000001 1.000000
v 2.000000 -0.195092 0.980785
v 2.000000 -0.382685 0.923880
v 1.999999 -0.555572 0.831470
v 1.999999 -0.707108 0.707107
v 1.999999 -0.831471 0.555570
v 1.999999 -0.923881 0.382683
v 1.999999 -0.980787 0.195090
v 1.999999 -1.000001 0.000000
v 1.999999 -0.980787 -0.195090
v 1.999999 -0.923881 -0.382683
v 1.999999 -0.831471 -0.555570
v 1.999999 -0.707108 -0.707107
v 1.999999 -0.555572 -0.831470
v 2.000000 -0.382685 -0.923880
v 2.000000 -0.195092 -0.980785
v 0.000000 0.000001 0.000000
v 2.000005 -0.000001 -0.999991
v 2.000005 0.195087 -0.980776
v 2.000005 0.382679 -0.923871
v 2.000005 0.555564 -0.831462
v 2.000005 0.707099 -0.707100
v 2.000006 0.831461 -0.555565
v 2.000006 0.923870 -0.382680
v 2.000006 0.980775 -0.195089
v 2.000006 0.999990 0.000000
v 2.000006 0.980775 0.195089
v 2.000006 0.923870 0.382680
v 2.000006 0.831461 0.555565
v 2.000005 0.707099 0.707100
v 2.000005 0.555564 0.831462
v 2.000005 0.382679 0.923871
v 2.000005 0.195087 0.980776
v 2.000005 -0.000001 0.999991
v 2.000004 -0.195090 0.980776
v 2.000004 -0.382681 0.923871
v 2.000004 -0.555567 0.831462
v 2.000004 -0.707102 0.707100
v 2.000003 -0.831463 0.555565
v 2.000003 -0.923873 0.382680
v 2.000003 -0.980778 0.195089
v 2.000003 -0.999992 0.000000
v 2.000003 -0.980778 -0.195089
v 2.000003 -0.923873 -0.382680
v 2.000003 -0.831463 -0.555565
v 2.000004 -0.707102 -0.707100
v 2.000004 -0.555567 -0.831462
v 2.000004 -0.382681 -0.923871
v 2.000004 -0.195090 -0.980776
v 0.000010 0.000001 0.000000
vn -0.4455 0.0878 -0.8910
vn -0.4455 0.2599 -0.8567
vn -0.4455 0.4220 -0.7896
vn -0.4455 0.5680 -0.6921
vn -0.4455 0.6921 -0.5680
vn -0.4455 0.7896 -0.4220
vn -0.4455 0.8567 -0.2599
vn -0.4455 0.8910 -0.0878
vn -0.4455 0.8910 0.0878
vn -0.4455 0.8567 0.2599
vn -0.4455 0.7896 0.4220
vn -0.4455 0.6921 0.5680
vn -0.4455 0.5680 0.6921
vn -0.4455 0.4220 0.7896
vn -0.4455 0.2599 0.8567
vn -0.4455 0.0878 0.8910
vn -0.4455 -0.0878 0.8910
vn -0.4455 -0.2599 0.8567
vn -0.4455 -0.4220 0.7896
vn -0.4455 -0.5680 0.6921
vn -0.4455 -0.6921 0.5680
vn -0.4455 -0.7896 0.4220
vn -0.4455 -0.8567 0.2599
vn -0.4455 -0.8910 0.0878
vn -0.4455 -0.8910 -0.0878
vn -0.4455 -0.8567 -0.2599
vn -0.4455 -0.7896 -0.4220
vn -0.4455 -0.6921 -0.5680
vn -0.4455 -0.5680 -0.6921
vn -0.4455 -0.4220 -0.7896
vn -0.4455 -0.2599 -0.8567
vn -0.4455 -0.0878 -0.8910
vn 0.4455 -0.0878 0.8910
vn 0.4455 -0.2599 0.8567
vn 0.4455 -0.4220 0.7896
vn 0.4455 -0.5680 0.6921
vn 0.4455 -0.6921 0.5680
vn 0.4455 -0.7896 0.4220
vn 0.4455 -0.8567 0.2599
vn 0.4455 -0.8910 0.0878
vn 0.4455 -0.8910 -0.0878
vn 0.4455 -0.8567 -0.2599
vn 0.4455 -0.7896 -0.4220
vn 0.4455 -0.6921 -0.5680
vn 0.4455 -0.5680 -0.6921
vn 0.4455 -0.4220 -0.7896
vn 0.4455 -0.2599 -0.8567
vn 0.4455 -0.0878 -0.8910
vn 0.4455 0.0878 -0.8910
vn 0.4455 0.2599 -0.8567
vn 0.4455 0.4220 -0.7896
vn 0.4455 0.5680 -0.6921
vn 0.4455 0.6921 -0.5680
vn 0.4455 0.7896 -0.4220
vn 0.4455 0.8567 -0.2599
vn 0.4455 0.8910 -0.0878
vn 0.4455 0.8910 0.0878
vn 0.4455 0.8567 0.2599
vn 0.4455 0.7896 0.4220
vn 0.4455 0.6921 0.5680
vn 0.4455 0.5680 0.6921
vn 0.4455 0.4220 0.7896
vn 0.4455 0.2599 0.8567
vn 0.4455 0.0878 0.8910
vn 0.8911 0.0447 -0.4517
vn 0.8927 0.1305 -0.4314
vn 0.8912 0.2133 -0.4003
vn 0.8907 0.2893 -0.3507
vn 0.8912 0.3504 -0.2880
vn 0.8907 0.4017 -0.2129
vn 0.8913 0.4338 -0.1317
vn 0.8920 0.4498 -0.0445
vn 0.8920 0.4498 0.0445
vn 0.8913 0.4338 0.1317
vn 0.8907 0.4017 0.2129
vn 0.8912 0.3504 0.2880
vn 0.8907 0.2893 0.3507
vn 0.8912 0.2133 0.4003
vn 0.8927 0.1305 0.4314
vn 0.8911 0.0447 0.4517
vn 0.8911 -0.0447 0.4517
vn 0.8927 -0.1305 0.4314
vn 0.8912 -0.2133 0.4003
vn 0.8907 -0.2893 0.3507
vn 0.8912 -0.3504 0.2880
vn 0.8907 -0.4017 0.2129
vn 0.8913 -0.4338 0.1317
vn 0.8920 -0.4498 0.0445
vn 0.8920 -0.4498 -0.0445
vn 0.8913 -0.4338 -0.1317
vn 0.8907 -0.4017 -0.2129
vn 0.8912 -0.3504 -0.2880
vn 0.8907 -0.2893 -0.3507
vn 0.8912 -0.2133 -0.4003
vn 0.8927 -0.1305 -0.4314
vn 0.8911 -0.0447 -0.4517
vt 0.250000 0.490000
vt 0.250000 0.250000
vt 0.296822 0.485388
vt 0.341844 0.471731
vt 0.383337 0.449553
vt 0.419706 0.419706
vt 0.449553 0.383337
vt 0.471731 0.341844
vt 0.485388 0.296822
vt 0.490000 0.250000
vt 0.485388 0.203178
vt 0.471731 0.158156
vt 0.449553 0.116663
vt 0.419706 0.080294
vt 0.383337 0.050447
vt 0.341844 0.028269
vt 0.296822 0.014612
vt 0.250000 0.010000
vt 0.203178 0.014612
vt 0.158156 0.028269
vt 0.116663 0.050447
vt 0.080294 0.080294
vt 0.050447 0.116663
vt 0.028269 0.158156
vt 0.014612 0.203178
vt 0.010000 0.250000
vt 0.014612 0.296822
vt 0.028269 0.341844
vt 0.050447 0.383337
vt 0.080294 0.419706
vt 0.116663 0.449553
vt 0.158156 0.471731
vt 0.203178 0.485388
s 0
f 1/1/1 33/2/1 2/3/1
f 2/3/2 33/2/2 3/4/2
f 3/4/3 33/2/3 4/5/3
f 4/5/4 33/2/4 5/6/4
f 5/6/5 33/2/5 6/7/5
f 6/7/6 33/2/6 7/8/6
f 7/8/7 33/2/7 8/9/7
f 8/9/8 33/2/8 9/10/8
f 9/10/9 33/2/9 10/11/9
f 10/11/10 33/2/10 11/12/10
f 11/12/11 33/2/11 12/13/11
f 12/13/12 33/2/12 13/14/12
f 13/14/13 33/2/13 14/15/13
f 14/15/14 33/2/14 15/16/14
f 15/16/15 33/2/15 16/17/15
f 16/17/16 33/2/16 17/18/16
f 17/18/17 33/2/17 18/19/17
f 18/19/18 33/2/18 19/20/18
f 19/20/19 33/2/19 20/21/19
f 20/21/20 33/2/20 21/22/20
f 21/22/21 33/2/21 22/23/21
f 22/23/22 33/2/22 23/24/22
f 23/24/23 33/2/23 24/25/23
f 24/25/24 33/2/24 25/26/24
f 25/26/25 33/2/25 26/27/25
f 26/27/26 33/2/26 27/28/26
f 27/28/27 33/2/27 28/29/27
f 28/29/28 33/2/28 29/30/28
f 29/30/29 33/2/29 30/31/29
f 30/31/30 33/2/30 31/32/30
f 31/32/31 33/2/31 32/33/31
f 32/33/32 33/2/32 1/1/32
f 34/1/33 35/3/33 66/2/33
f 35/3/34 36/4/34 66/2/34
f 36/4/35 37/5/35 66/2/35
f 37/5/36 38/6/36 66/2/36
f 38/6/37 39/7/37 66/2/37
f 39/7/38 40/8/38 66/2/38
f 40/8/39 41/9/39 66/2/39
f 41/9/40 42/10/40 66/2/40
f 42/10/41 43/11/41 66/2/41
f 43/11/42 44/12/42 66/2/42
f 44/12/43 45/13/43 66/2/43
f 45/13/44 46/14/44 66/2/44
f 46/14/45 47/15/45 66/2/45
f 47/15/46 48/16/46 66/2/46
f 48/16/47 49/17/47 66/2/47
f 49/17/48 50/18/48 66/2/48
f 50/18/49 51/19/49 66/2/49
f 51/19/50 52/20/50 66/2/50
f 52/20/51 53/21/51 66/2/51
f 53/21/52 54/22/52 66/2/52
f 54/22/53 55/23/53 66/2/53
f 55/23/54 56/24/54 66/2/54
f 56/24/55 57/25/55 66/2/55
f 57/25/56 58/26/56 66/2/56
f 58/26/57 59/27/57 66/2/57
f 59/27/58 60/28/58 66/2/58
f 60/28/59 61/29/59 66/2/59
f 61/29/60 62/30/60 66/2/60
f 62/30/61 63/31/61 66/2/61
f 63/31/62 64/32/62 66/2/62
f 64/32/63 65/33/63 66/2/63
f 65/33/64 34/1/64 66/2/64
f 1/1/65 2/3/65 35/3/65 34/1/65
f 2/3/66 3/4/66 36/4/66 35/3/66
f 3/4/67 4/5/67 37/5/67 36/4/67
f 4/5/68 5/6/68 38/6/68 37/5/68
f 5/6/69 6/7/69 39/7/69 38/6/69
f 6/7/70 7/8/70 40/8/70 39/7/70
f 7/8/71 8/9/71 41/9/71 40/8/71
f 8/9/72 9/10/72 42/10/72 41/9/72
f 9/10/73 10/11/73 43/11/73 42/10/73
f 10/11/74 11/12/74 44/12/74 43/11/74
f 11/12/75 12/13/75 45/13/75 44/12/75
f 12/13/76 13/14/76 46/14/76 45/13/76
f 13/14/77 14/15/77 47/15/77 46/14/77
f 14/15/78 15/16/78 48/16/78 47/15/78
f 15/16/79 16/17/79 49/17/79 48/16/79
f 16/17/80 17/18/80 50/18/80 49/17/80
f 17/18/81 18/19/81 51/19/81 50/18/81
f 18/19/82 19/20/82 52/20/82 51/19/82
f 19/20/83 20/21/83 53/21/83 52/20/83
f 20/21/84 21/22/84 54/22/84 53/21/84
f 21/22/85 22/23/85 55/23/85 54/22/85
f 22/23/86 23/24/86 56/24/86 55/23/86
f 23/24/87 24/25/87 57/25/87 56/24/87
f 24/25/88 25/26/88 58/26/88 57/25/88
f 25/26/89 26/27/89 59/27/89 58/26/89
f 26/27/90 27/28/90 60/28/90 59/27/90
f 27/28/91 28/29/91 61/29/91 60/28/91
f 28/29/92 29/30/92 62/30/92 61/29/92
f 29/30/93 30/31/93 63/31/93 62/30/93
f 30/31/94 31/32/94 64/32/94 63/31/94
f 31/32/95 32/33/95 65/33/95 64/32/95
f 32/33/96 1/1/96 34/1/96 65/33/96
