# Blender 4.3.2
# www.blender.org
o Straight
v -1.000000 0.002517 -0.420240
v -1.000000 0.002517 0.420240
v -1.000000 0.003266 0.424008
v -1.000000 0.005400 0.427202
v -1.000000 0.008595 0.429337
v -1.000000 0.012363 0.430086
v -1.000000 0.073175 0.430086
v -1.000000 0.076943 0.430836
v -1.000000 0.080138 0.432970
v -1.000000 0.082272 0.436165
v -1.000000 0.083022 0.439933
v -1.000000 0.083022 0.490154
v -1.000000 0.082272 0.493922
v -1.000000 0.080138 0.497116
v -1.000000 0.076943 0.499251
v -1.000000 0.073175 0.500000
v -1.000000 0.002517 0.500000
v -1.000000 -0.047424 0.500000
v -1.000000 -0.072405 0.495031
v -1.000000 -0.093583 0.480880
v -1.000000 -0.107733 0.459702
v -1.000000 -0.112703 0.434721
v -1.000000 -0.112703 0.430086
v -1.000000 -0.112703 -0.430086
v -1.000000 -0.112703 -0.434721
v -1.000000 -0.107733 -0.459702
v -1.000000 -0.093583 -0.480880
v -1.000000 -0.072405 -0.495031
v -1.000000 -0.047424 -0.500000
v -1.000000 0.002517 -0.500000
v -1.000000 0.073175 -0.500000
v -1.000000 0.076943 -0.499251
v -1.000000 0.080138 -0.497116
v -1.000000 0.082272 -0.493922
v -1.000000 0.083022 -0.490154
v -1.000000 0.083022 -0.439933
v -1.000000 0.082272 -0.436165
v -1.000000 0.080138 -0.432970
v -1.000000 0.076943 -0.430836
v -1.000000 0.073175 -0.430086
v -1.000000 0.012363 -0.430086
v -1.000000 0.008595 -0.429337
v -1.000000 0.005400 -0.427202
v -1.000000 0.003266 -0.424008
v 1.000000 0.002517 -0.420240
v 1.000000 0.002517 0.420240
v 1.000000 0.003266 0.424008
v 1.000000 0.005400 0.427202
v 1.000000 0.008595 0.429337
v 1.000000 0.012363 0.430086
v 1.000000 0.073175 0.430086
v 1.000000 0.076943 0.430836
v 1.000000 0.080138 0.432970
v 1.000000 0.082272 0.436165
v 1.000000 0.083022 0.439933
v 1.000000 0.083022 0.490154
v 1.000000 0.082272 0.493922
v 1.000000 0.080138 0.497116
v 1.000000 0.076943 0.499251
v 1.000000 0.073175 0.500000
v 1.000000 0.002517 0.500000
v 1.000000 -0.047424 0.500000
v 1.000000 -0.072405 0.495031
v 1.000000 -0.093583 0.480880
v 1.000000 -0.107733 0.459702
v 1.000000 -0.112703 0.434721
v 1.000000 -0.112703 0.430086
v 1.000000 -0.112703 -0.430086
v 1.000000 -0.112703 -0.434721
v 1.000000 -0.107733 -0.459702
v 1.000000 -0.093583 -0.480880
v 1.000000 -0.072405 -0.495031
v 1.000000 -0.047424 -0.500000
v 1.000000 0.002517 -0.500000
v 1.000000 0.073175 -0.500000
v 1.000000 0.076943 -0.499251
v 1.000000 0.080138 -0.497116
v 1.000000 0.082272 -0.493922
v 1.000000 0.083022 -0.490154
v 1.000000 0.083022 -0.439933
v 1.000000 0.082272 -0.436165
v 1.000000 0.080138 -0.432970
v 1.000000 0.076943 -0.430836
v 1.000000 0.073175 -0.430086
v 1.000000 0.012363 -0.430086
v 1.000000 0.008595 -0.429337
v 1.000000 0.005400 -0.427202
v 1.000000 0.003266 -0.424008
vn -0.0000 0.9952 0.0980
vn -0.0000 0.9952 -0.0980
vn -0.0000 0.9239 -0.3827
vn -0.0000 0.7071 -0.7071
vn -0.0000 0.3827 -0.9239
vn -0.0000 0.0980 -0.9952
vn -0.0000 0.9239 0.3827
vn -0.0000 0.7071 0.7071
vn -0.0000 0.3827 0.9239
vn -0.0000 0.0980 0.9952
vn -0.0000 -0.0000 1.0000
vn -0.0000 -0.0980 0.9952
vn -0.0000 -0.3827 0.9239
vn -0.0000 -0.7071 0.7071
vn -0.0000 -0.9239 0.3827
vn -0.0000 -0.9952 0.0980
vn -0.0000 -1.0000 -0.0000
vn -0.0000 -0.9952 -0.0980
vn -0.0000 -0.9239 -0.3827
vn -0.0000 -0.7071 -0.7071
vn -0.0000 -0.3827 -0.9239
vn -0.0000 -0.0980 -0.9952
vn -0.0000 -0.0000 -1.0000
s 1
f 17//11 18//12 62//12 61//11
f 44//7 1//1 45//1 88//7
f 4//4 5//5 49//5 48//4
f 31//6 32//5 76//5 75//6
f 18//12 19//13 63//13 62//12
f 5//5 6//6 50//6 49//5
f 32//5 33//4 77//4 76//5
f 19//13 20//14 64//14 63//13
f 6//6 7//6 51//6 50//6
f 33//4 34//3 78//3 77//4
f 20//14 21//15 65//15 64//14
f 7//6 8//5 52//5 51//6
f 34//3 35//2 79//2 78//3
f 21//15 22//16 66//16 65//15
f 8//5 9//4 53//4 52//5
f 35//2 36//1 80//1 79//2
f 22//16 23//17 67//17 66//16
f 9//4 10//3 54//3 53//4
f 36//1 37//7 81//7 80//1
f 23//17 24//17 68//17 67//17
f 10//3 11//2 55//2 54//3
f 37//7 38//8 82//8 81//7
f 24//17 25//18 69//18 68//17
f 11//2 12//1 56//1 55//2
f 38//8 39//9 83//9 82//8
f 25//18 26//19 70//19 69//18
f 12//1 13//7 57//7 56//1
f 39//9 40//10 84//10 83//9
f 26//19 27//20 71//20 70//19
f 13//7 14//8 58//8 57//7
f 40//10 41//10 85//10 84//10
f 27//20 28//21 72//21 71//20
f 14//8 15//9 59//9 58//8
f 41//10 42//9 86//9 85//10
f 1//1 2//2 46//2 45//1
f 28//21 29//22 73//22 72//21
f 15//9 16//10 60//10 59//9
f 42//9 43//8 87//8 86//9
f 2//2 3//3 47//3 46//2
f 29//22 30//23 74//23 73//22
f 16//10 17//11 61//11 60//10
f 43//8 44//7 88//7 87//8
f 3//3 4//4 48//4 47//3
f 30//23 31//6 75//6 74//23
